<svg width="269" height="266" viewBox="0 0 269 266" fill="none" xmlns="http://www.w3.org/2000/svg">
<path opacity="0.5" d="M242.851 50.9558C238.75 45.3301 203.641 -1.19772 146.733 1.06906C143.889 1.18158 88.3872 4.11957 67.9163 40.5918C52.7733 67.5712 68.8057 91.5077 50.332 109.889C34.2307 125.906 14.4523 115.305 4.56073 128.256C-10.5075 147.985 13.4843 201.269 50.3572 230.985C88.426 261.668 161.257 284.179 217.869 243.242C281.417 197.28 280.776 102.979 242.851 50.9558Z" fill="url(#paint0_linear_1511_13783)" fill-opacity="0.5"/>
<g style="mix-blend-mode:soft-light">
<g style="mix-blend-mode:soft-light">
<path d="M65.6892 168.638C60.4021 168.633 55.1209 168.285 49.8789 167.596L49.94 167.129C83.9195 171.564 105.748 160.437 108.137 159.147C96.1943 140.536 104.636 113.153 104.723 112.88L105.171 113.021C105.085 113.295 96.6463 140.678 108.669 159.103L108.804 159.311L108.589 159.435C108.396 159.542 92.3601 168.638 65.6892 168.638Z" fill="white"/>
</g>
</g>
<path d="M86.6772 144.856C86.3469 144.856 86.0286 144.732 85.7843 144.51C85.5401 144.288 85.3874 143.982 85.3561 143.653C84.1921 131.44 80.2095 119.834 74.1424 110.977C68.7679 103.129 62.3701 98.4458 57.0237 98.4458H57.0072C37.5353 98.4836 33.4615 143.189 33.4227 143.646C33.3839 143.99 33.2121 144.306 32.9441 144.525C32.6761 144.745 32.333 144.851 31.9878 144.822C31.6425 144.792 31.3225 144.629 31.0958 144.367C30.869 144.105 30.7535 143.765 30.7738 143.419C30.9406 141.479 35.1095 95.8347 57.0014 95.7939H57.0247C63.342 95.7939 70.379 100.78 76.3374 109.481C82.6538 118.704 86.7974 130.753 88.0031 143.407C88.0204 143.581 88.0031 143.757 87.9522 143.925C87.9013 144.092 87.8179 144.248 87.7067 144.383C87.5955 144.518 87.4587 144.63 87.3042 144.712C87.1497 144.795 86.9804 144.845 86.8062 144.862C86.7628 144.858 86.7198 144.856 86.6772 144.856Z" fill="url(#paint1_linear_1511_13783)"/>
<path d="M5.55602 236.864L31.189 249.841L46.7248 202.183L21.1296 138.286L13.8734 140.065L2.86245 231.823C2.73922 232.838 2.93165 233.866 3.41358 234.768C3.89551 235.671 4.64356 236.402 5.55602 236.864Z" fill="url(#paint2_linear_1511_13783)"/>
<path style="mix-blend-mode:multiply" opacity="0.52" d="M46.7258 202.183L21.1306 138.286L16.8512 139.339C16.3627 146.218 16.3863 153.124 16.922 159.999C18.6369 181.752 24.3344 187.806 21.5778 202.982C19.2828 215.6 14.2711 217.313 14.7085 225.803C15.1858 235.049 21.635 242.792 29.3025 248.88L31.1939 249.838L46.7258 202.183Z" fill="url(#paint3_linear_1511_13783)"/>
<path d="M21.1299 138.29H116.703L148.334 240.403L31.1893 249.841L21.1299 138.29Z" fill="url(#paint4_linear_1511_13783)"/>
<path d="M50.737 147.042C50.4368 147.042 50.1454 146.941 49.9101 146.755C49.6748 146.568 49.5095 146.308 49.4411 146.015C49.1696 144.857 42.8901 117.499 51.7438 104.068C54.2812 100.22 57.8274 97.8697 62.2814 97.084C85.1724 93.0509 99.261 142.209 99.8497 144.304C99.9022 144.474 99.9202 144.652 99.9025 144.829C99.8849 145.006 99.8321 145.177 99.7472 145.333C99.6623 145.489 99.5471 145.626 99.4082 145.737C99.2694 145.848 99.1097 145.93 98.9388 145.978C98.7678 146.026 98.589 146.039 98.4128 146.017C98.2367 145.994 98.0667 145.937 97.913 145.848C97.7594 145.759 97.6251 145.64 97.5181 145.499C97.4111 145.357 97.3335 145.195 97.29 145.023C97.1523 144.538 83.281 96.0762 62.7431 99.7019C58.9845 100.365 56.1125 102.272 53.964 105.531C45.733 118.014 51.9659 145.136 52.0299 145.408C52.1103 145.752 52.051 146.113 51.8651 146.413C51.6792 146.712 51.382 146.926 51.0387 147.007C50.9397 147.029 50.8385 147.041 50.737 147.042Z" fill="url(#paint5_linear_1511_13783)"/>
<g style="mix-blend-mode:multiply" opacity="0.3">
<path style="mix-blend-mode:multiply" opacity="0.3" d="M116.704 138.286H69.2903C66.9517 140.664 65.2921 143.405 65.133 146.481C64.3881 160.933 97.6013 165.674 100.805 185.473C103.116 199.758 88.8979 216.239 76.2119 223.582C62.8459 231.318 53.7894 227.401 44.7494 235.989C40.7784 239.764 38.3593 244.482 36.9209 249.375L148.334 240.398L116.704 138.286Z" fill="url(#paint6_linear_1511_13783)"/>
</g>
<path d="M54.4164 147.846C54.7451 145.821 53.3699 143.913 51.3447 143.584C49.3195 143.255 47.4113 144.631 47.0825 146.656C46.7538 148.681 48.129 150.589 50.1542 150.918C52.1794 151.247 54.0877 149.871 54.4164 147.846Z" fill="url(#paint7_linear_1511_13783)"/>
<path d="M103.411 147.033C103.739 145.002 102.359 143.089 100.328 142.761C98.2963 142.433 96.3836 143.813 96.0553 145.844C95.7271 147.876 97.1075 149.788 99.1387 150.117C101.17 150.445 103.083 149.064 103.411 147.033Z" fill="url(#paint8_linear_1511_13783)"/>
<path d="M186.874 32.3666C195.176 102.527 203.478 171.958 211.779 240.661C212.152 243.741 210.024 246.465 207.046 246.719C173.68 249.884 140.315 253.118 106.953 256.419C101.001 256.71 97.7323 253.382 97.3502 250.053C88.8055 175.89 80.2605 100.951 71.7152 25.2365C71.3272 21.8358 74.2128 18.9134 80.1645 19.2043C113.694 21.5969 147.222 23.9571 180.749 26.285C183.748 26.4829 186.502 29.2172 186.874 32.3666Z" fill="#26264F"/>
<path d="M191.508 32.2212C199.863 102.692 208.217 172.42 216.57 241.408C216.945 244.498 214.805 247.238 211.808 247.493C177.163 250.428 142.518 253.42 107.873 256.47C104.712 256.751 101.806 254.247 101.421 250.902C92.8205 176.399 84.2202 101.112 75.6199 25.0386C75.232 21.6234 77.5259 19.0026 80.7093 19.2189C115.587 21.5468 150.465 23.8456 185.342 26.1153C188.363 26.3151 191.134 29.0591 191.508 32.2212Z" fill="url(#paint9_linear_1511_13783)"/>
<path d="M189.495 43.7491C197.232 109.04 204.97 173.694 212.708 237.711C213.059 240.604 211.06 243.159 208.258 243.387C175.676 246.051 143.094 248.767 110.513 251.535C107.569 251.787 104.863 249.443 104.499 246.335C96.5456 177.521 88.5952 108.036 80.648 37.8799C80.2882 34.7052 82.4211 32.2493 85.3833 32.4248C118.168 34.3337 150.952 36.2225 183.737 38.0913C186.557 38.2504 189.146 40.8053 189.495 43.7491Z" fill="url(#paint10_linear_1511_13783)"/>
<path d="M189.495 43.7491C197.232 109.04 204.97 173.694 212.708 237.711C213.059 240.604 211.06 243.159 208.258 243.387C175.676 246.051 143.094 248.767 110.513 251.535C107.569 251.787 104.863 249.443 104.499 246.335C96.5456 177.521 88.5952 108.036 80.648 37.8799C80.2882 34.7052 82.4211 32.2493 85.3833 32.4248C118.168 34.3337 150.952 36.2225 183.737 38.0913C186.557 38.2504 189.146 40.8053 189.495 43.7491Z" fill="url(#paint11_linear_1511_13783)"/>
<g style="mix-blend-mode:multiply" opacity="0.35">
<path d="M183.741 38.0894C151.345 36.2426 118.948 34.376 86.5518 32.4898C87.6419 38.8484 89.5552 45.0379 92.2435 50.9025C102.99 74.2163 118.777 75.4996 124.952 95.8114C131.315 116.742 116.966 123.292 123.976 142.19C131.583 162.696 150.241 159.728 160.102 182.221C168.601 201.608 157.659 210.471 166.448 222.253C176.082 235.166 193.903 230.789 212.401 235.162C204.766 171.978 197.132 108.174 189.496 43.75C189.147 40.8052 186.558 38.2504 183.741 38.0894Z" fill="url(#paint12_linear_1511_13783)"/>
</g>
<path d="M136.422 29.4829C136.554 30.6187 135.79 31.4878 134.718 31.4228C133.645 31.3579 132.665 30.3821 132.533 29.2414C132.401 28.1007 133.166 27.2297 134.24 27.3015C135.313 27.3733 136.29 28.3461 136.422 29.4829Z" fill="#DE8BDF"/>
<path d="M148.126 92.5776C152.267 92.5776 155.624 88.6171 155.624 83.7316C155.624 78.8461 152.267 74.8856 148.126 74.8856C143.984 74.8856 140.627 78.8461 140.627 83.7316C140.627 88.6171 143.984 92.5776 148.126 92.5776Z" fill="#DD51D4"/>
<path d="M148.126 92.5776C152.267 92.5776 155.624 88.6171 155.624 83.7316C155.624 78.8461 152.267 74.8856 148.126 74.8856C143.984 74.8856 140.627 78.8461 140.627 83.7316C140.627 88.6171 143.984 92.5776 148.126 92.5776Z" fill="black" fill-opacity="0.2"/>
<path d="M177.974 92.5776C182.115 92.5776 185.472 88.6171 185.472 83.7316C185.472 78.8461 182.115 74.8856 177.974 74.8856C173.833 74.8856 170.477 78.8461 170.477 83.7316C170.477 88.6171 173.833 92.5776 177.974 92.5776Z" fill="#DD51D4"/>
<path d="M177.974 92.5776C182.115 92.5776 185.472 88.6171 185.472 83.7316C185.472 78.8461 182.115 74.8856 177.974 74.8856C173.833 74.8856 170.477 78.8461 170.477 83.7316C170.477 88.6171 173.833 92.5776 177.974 92.5776Z" fill="black" fill-opacity="0.2"/>
<path d="M162.967 92.5776C167.167 92.5776 170.572 88.6171 170.572 83.7316C170.572 78.8461 167.167 74.8856 162.967 74.8856C158.766 74.8856 155.361 78.8461 155.361 83.7316C155.361 88.6171 158.766 92.5776 162.967 92.5776Z" fill="#D8DEE8"/>
<path d="M207.822 92.5776C211.963 92.5776 215.321 88.6171 215.321 83.7316C215.321 78.8461 211.963 74.8856 207.822 74.8856C203.681 74.8856 200.323 78.8461 200.323 83.7316C200.323 88.6171 203.681 92.5776 207.822 92.5776Z" fill="#DD51D4"/>
<path d="M207.822 92.5776C211.963 92.5776 215.321 88.6171 215.321 83.7316C215.321 78.8461 211.963 74.8856 207.822 74.8856C203.681 74.8856 200.323 78.8461 200.323 83.7316C200.323 88.6171 203.681 92.5776 207.822 92.5776Z" fill="black" fill-opacity="0.2"/>
<path d="M192.815 92.5776C197.016 92.5776 200.421 88.6171 200.421 83.7316C200.421 78.8461 197.016 74.8856 192.815 74.8856C188.615 74.8856 185.21 78.8461 185.21 83.7316C185.21 88.6171 188.615 92.5776 192.815 92.5776Z" fill="#D8DEE8"/>
<path d="M222.663 92.5776C226.863 92.5776 230.268 88.6171 230.268 83.7316C230.268 78.8461 226.863 74.8856 222.663 74.8856C218.463 74.8856 215.058 78.8461 215.058 83.7316C215.058 88.6171 218.463 92.5776 222.663 92.5776Z" fill="#D8DEE8"/>
<path d="M133.12 92.5776C137.32 92.5776 140.725 88.6171 140.725 83.7316C140.725 78.8461 137.32 74.8856 133.12 74.8856C128.92 74.8856 125.515 78.8461 125.515 83.7316C125.515 88.6171 128.92 92.5776 133.12 92.5776Z" fill="#D8DEE8"/>
<path d="M79.1465 31.547L125.676 84.9295H245.77L187.577 38.3076L79.1465 31.547Z" fill="url(#paint13_linear_1511_13783)"/>
<path d="M79.1465 31.547L125.676 84.9295H245.77L187.577 38.3076L79.1465 31.547Z" fill="#DD51D4"/>
<path d="M79.1465 31.547L125.676 84.9295H140.724L91.6628 32.3268L79.1465 31.547Z" fill="#F4F7FA"/>
<path d="M105.103 33.1649L155.554 84.9295H170.417L118.641 34.0097L105.103 33.1649Z" fill="#F4F7FA"/>
<path d="M132.28 34.8594L185.316 84.9295H200.253L146.022 35.7168L132.28 34.8594Z" fill="#F4F7FA"/>
<path d="M173.823 37.4502L159.869 36.5801L215.224 84.9295H230.234L173.823 37.4502Z" fill="#F4F7FA"/>
<path d="M230.248 84.9295C230.745 89.2477 233.874 92.5786 237.669 92.5786C241.465 92.5786 244.595 89.2477 245.091 84.9295H230.248Z" fill="#DD51D4"/>
<path d="M230.248 84.9295C230.745 89.2477 233.874 92.5786 237.669 92.5786C241.465 92.5786 244.595 89.2477 245.091 84.9295H230.248Z" fill="black" fill-opacity="0.2"/>
<path opacity="0.63" d="M173.169 118.278C166.67 103.309 150.197 96.0394 136.366 102.04C122.535 108.042 116.589 125.041 123.083 140.01C129.578 154.98 146.056 162.248 159.886 156.246C173.717 150.245 179.664 133.242 173.169 118.278ZM152.775 139.609L153.329 143.824L149.277 144.357L148.765 140.429C145.979 140.67 143.194 140.279 141.504 139.576L142.108 134.577C143.969 135.298 146.522 135.847 149.21 135.493C151.566 135.184 153.059 134.063 152.841 132.409C152.635 130.838 151.181 130.02 147.991 129.388C143.372 128.481 140.083 126.811 139.552 122.801C139.075 119.164 141.263 115.975 145.572 114.526L145.056 110.598L149.107 110.067L149.585 113.704C152.371 113.464 154.307 113.801 155.758 114.28L155.176 119.109C154.042 118.796 152.015 118.094 149.038 118.486C146.352 118.838 145.636 120.111 145.788 121.268C145.968 122.632 147.528 123.305 151.22 124.171C156.367 125.261 158.65 127.275 159.139 130.993C159.611 134.673 157.42 138.156 152.775 139.609Z" fill="#F4F7FA"/>
<g opacity="0.63">
<path opacity="0.63" d="M188.009 199.555L124.703 201.473C123.603 201.506 122.529 201.136 121.684 200.431C120.838 199.727 120.281 198.737 120.116 197.649L117.549 180.772C117.453 180.139 117.493 179.494 117.666 178.878C117.839 178.262 118.141 177.69 118.552 177.2C118.964 176.71 119.475 176.314 120.051 176.037C120.628 175.76 121.257 175.609 121.896 175.594L185.27 174.127C186.366 174.1 187.433 174.474 188.272 175.178C189.111 175.882 189.665 176.868 189.829 177.951L192.327 194.378C192.423 195.008 192.383 195.651 192.212 196.265C192.041 196.879 191.741 197.449 191.333 197.939C190.925 198.428 190.417 198.825 189.844 199.104C189.271 199.382 188.646 199.536 188.009 199.555Z" fill="#F4F7FA"/>
<path opacity="0.63" d="M190.135 213.429L126.866 215.591C125.764 215.629 124.686 215.26 123.837 214.556C122.988 213.851 122.428 212.859 122.262 211.769L122.238 211.61C122.142 210.98 122.181 210.338 122.352 209.725C122.522 209.112 122.821 208.542 123.228 208.053C123.635 207.564 124.142 207.166 124.714 206.887C125.285 206.608 125.91 206.453 126.546 206.433L189.839 204.428C190.939 204.393 192.015 204.763 192.861 205.467C193.708 206.172 194.267 207.162 194.432 208.251C194.528 208.879 194.49 209.521 194.32 210.133C194.15 210.746 193.852 211.315 193.446 211.804C193.04 212.294 192.536 212.691 191.965 212.971C191.394 213.251 190.771 213.408 190.135 213.429Z" fill="#F4F7FA"/>
</g>
<defs>
<linearGradient id="paint0_linear_1511_13783" x1="268.965" y1="26.2247" x2="-59.0352" y2="59.5041" gradientUnits="userSpaceOnUse">
<stop stop-color="#7C4EAB"/>
<stop offset="1" stop-color="#DD51D4"/>
</linearGradient>
<linearGradient id="paint1_linear_1511_13783" x1="60970.5" y1="80159.3" x2="62425.6" y2="102222" gradientUnits="userSpaceOnUse">
<stop stop-color="#E38DDD"/>
<stop offset="1" stop-color="#9571F6"/>
</linearGradient>
<linearGradient id="paint2_linear_1511_13783" x1="-8.04567" y1="152.463" x2="24.3557" y2="206.799" gradientUnits="userSpaceOnUse">
<stop stop-color="#FF9085"/>
<stop offset="1" stop-color="#FB6FBB"/>
</linearGradient>
<linearGradient id="paint3_linear_1511_13783" x1="14305.7" y1="225067" x2="47427" y2="241022" gradientUnits="userSpaceOnUse">
<stop stop-color="#FF9085"/>
<stop offset="1" stop-color="#FB6FBB"/>
</linearGradient>
<linearGradient id="paint4_linear_1511_13783" x1="71208.2" y1="209681" x2="178805" y2="304216" gradientUnits="userSpaceOnUse">
<stop stop-color="#FF9085"/>
<stop offset="1" stop-color="#FB6FBB"/>
</linearGradient>
<linearGradient id="paint5_linear_1511_13783" x1="61423.6" y1="71789.1" x2="66005.2" y2="102561" gradientUnits="userSpaceOnUse">
<stop stop-color="#E38DDD"/>
<stop offset="1" stop-color="#9571F6"/>
</linearGradient>
<linearGradient id="paint6_linear_1511_13783" x1="110114" y1="250872" x2="214669" y2="331666" gradientUnits="userSpaceOnUse">
<stop stop-color="#FF9085"/>
<stop offset="1" stop-color="#FB6FBB"/>
</linearGradient>
<linearGradient id="paint7_linear_1511_13783" x1="7096.34" y1="14811.1" x2="7211.05" y2="14853.8" gradientUnits="userSpaceOnUse">
<stop stop-color="#E38DDD"/>
<stop offset="1" stop-color="#9571F6"/>
</linearGradient>
<linearGradient id="paint8_linear_1511_13783" x1="10897.4" y1="14818.2" x2="11012.5" y2="14860.9" gradientUnits="userSpaceOnUse">
<stop stop-color="#E38DDD"/>
<stop offset="1" stop-color="#9571F6"/>
</linearGradient>
<linearGradient id="paint9_linear_1511_13783" x1="92.5729" y1="137.404" x2="299.42" y2="104.674" gradientUnits="userSpaceOnUse">
<stop stop-color="#444B8C"/>
<stop offset="1" stop-color="#26264F"/>
</linearGradient>
<linearGradient id="paint10_linear_1511_13783" x1="185.562" y1="57.1063" x2="-18.1409" y2="479.625" gradientUnits="userSpaceOnUse">
<stop stop-color="#FFC444"/>
<stop offset="1" stop-color="#F36F56"/>
</linearGradient>
<linearGradient id="paint11_linear_1511_13783" x1="212.748" y1="53.3256" x2="50.538" y2="63.0839" gradientUnits="userSpaceOnUse">
<stop stop-color="#7C4EAB"/>
<stop offset="1" stop-color="#DD51D4"/>
</linearGradient>
<linearGradient id="paint12_linear_1511_13783" x1="212.4" y1="51.8283" x2="57.9466" y2="61.3966" gradientUnits="userSpaceOnUse">
<stop stop-color="#7C4EAB"/>
<stop offset="1" stop-color="#DD51D4"/>
</linearGradient>
<linearGradient id="paint13_linear_1511_13783" x1="146213" y1="36403.2" x2="432448" y2="36403.2" gradientUnits="userSpaceOnUse">
<stop stop-color="#FF9085"/>
<stop offset="1" stop-color="#FB6FBB"/>
</linearGradient>
</defs>
</svg>
