<svg width="270" height="271" viewBox="0 0 270 271" fill="none" xmlns="http://www.w3.org/2000/svg">
<g clip-path="url(#clip0_1511_13864)">
<path opacity="0.5" d="M205.5 16.7281C214.513 29.7641 203.945 50.8979 217.316 60.7021C230.333 70.2452 246.323 54.6007 258.59 62.8173C276.786 75.0033 273.464 130.766 246.858 165.412C238.857 175.829 232.172 179.885 229.21 191.669C222.853 216.971 245.198 232.023 240.946 244.537C231.375 272.715 84.1219 296.359 25.039 211.676C-2.55722 172.126 -6.6846 115.014 17.9699 71.6387C62.5206 -6.74105 185.279 -12.521 205.5 16.7281Z" fill="url(#paint0_linear_1511_13864)" fill-opacity="0.5"/>
<path d="M0.00012207 237.47L263.588 235.509V241.311C263.588 242.073 263.315 242.81 262.819 243.388C262.323 243.966 261.636 244.348 260.883 244.464L186.348 255.89C185.462 256.026 184.564 256.062 183.669 255.998L2.86194 242.971C2.08374 242.915 1.35562 242.567 0.824097 241.996C0.292603 241.425 -0.00280762 240.674 -0.00268555 239.894L0.00012207 237.47Z" fill="url(#paint1_linear_1511_13864)"/>
<path d="M95.6545 228.064L260.86 238.68C263.817 238.865 266.221 236.851 266.221 234.17V126.796C266.221 124.116 263.817 121.943 260.86 121.943H95.6545C95.0771 121.942 94.5052 122.054 93.9712 122.274C93.4373 122.494 92.952 122.817 92.5428 123.224C92.1338 123.631 91.8089 124.115 91.587 124.648C91.3651 125.181 91.2503 125.753 91.2494 126.33V223.392C91.2494 225.817 93.2192 227.908 95.6545 228.064Z" fill="url(#paint2_linear_1511_13864)"/>
<path d="M93.0207 228.064L258.227 238.68C261.183 238.865 263.587 236.851 263.587 234.17V126.796C263.587 124.116 261.183 121.943 258.227 121.943H93.0207C92.4433 121.942 91.8713 122.054 91.3374 122.274C90.8035 122.494 90.3181 122.817 89.909 123.224C89.4999 123.631 89.1751 124.115 88.9532 124.648C88.7313 125.181 88.6165 125.753 88.6155 126.33V223.392C88.6155 225.817 90.5854 227.908 93.0207 228.064Z" fill="url(#paint3_linear_1511_13864)"/>
<path d="M98.1659 221.222L252.036 230.442C254.442 230.586 256.396 228.929 256.396 226.742V132.731C256.396 130.544 254.445 128.763 252.036 128.753L98.1659 128.175C97.6909 128.171 97.2198 128.261 96.7797 128.44C96.3396 128.618 95.9391 128.882 95.6014 129.216C95.2637 129.55 94.9953 129.948 94.8118 130.386C94.6283 130.824 94.5332 131.294 94.532 131.769V217.393C94.532 219.388 96.1571 221.101 98.1659 221.222Z" fill="url(#paint4_linear_1511_13864)"/>
<path d="M169.789 124.88C169.789 125.877 170.639 126.689 171.689 126.692C172.739 126.695 173.594 125.887 173.594 124.886C173.594 123.886 172.741 123.076 171.689 123.075C170.637 123.074 169.789 123.882 169.789 124.88Z" fill="white"/>
<g style="mix-blend-mode:soft-light" opacity="0.48">
<path d="M132.824 198.616C145.561 192.385 155.575 200.279 165.239 192.491C171.099 187.769 168.222 184.247 175.431 177.191C183.417 169.375 188.615 172.002 196.641 164.968C206.788 156.073 201.713 149.153 210.453 142.766C221.057 135.019 232.491 142.19 242.586 134.76C246.939 131.555 249.328 126.897 250.577 121.941H260.451C262.182 121.941 263.588 123.216 263.588 124.789V236.095C263.588 237.668 262.182 238.852 260.451 238.741L92.0786 227.872C91.6787 227.843 91.29 227.727 90.9395 227.532C90.589 227.337 90.2852 227.069 90.0493 226.744C102.375 226.337 109.946 222.58 114.787 218.696C124.256 211.103 122.614 203.611 132.824 198.616Z" fill="white"/>
</g>
<path d="M86.4358 227.583L263.588 238.756L186.346 250.597C185.461 250.732 184.563 250.767 183.669 250.703L-0.00268555 237.469L83.6149 227.658C84.551 227.549 85.4951 227.524 86.4358 227.583Z" fill="url(#paint5_linear_1511_13864)"/>
<path style="mix-blend-mode:multiply" opacity="0.3" d="M237.738 239.037L90.2545 229.597L44.6092 234.909L190.823 245L237.738 239.037Z" fill="url(#paint6_linear_1511_13864)"/>
<path d="M17.6763 81.622C12.8446 82.0289 8.56487 78.1161 8.12444 72.8824C7.68402 67.6487 11.2446 63.0763 16.079 62.6695C16.3299 62.6481 16.578 62.6453 16.8224 62.6472C17.0479 59.9786 17.4687 57.3302 18.0814 54.7232C17.8519 54.6303 17.6224 54.5318 17.3966 54.4157C12.9896 52.1509 11.0671 46.4768 13.102 41.741C15.1369 37.0052 20.3606 35.0005 24.7677 37.2653C24.9981 37.3833 25.2174 37.5161 25.4339 37.6527C26.8632 35.4933 28.4568 33.4473 30.2005 31.5327C30.0407 31.3246 29.8827 31.1119 29.7359 30.8824C26.9364 26.5535 27.8832 20.637 31.8489 17.668C35.8145 14.6991 41.3003 15.8008 44.099 20.1288C44.2421 20.3509 44.3694 20.5794 44.493 20.8088C46.7462 19.7226 49.087 18.8279 51.4905 18.1344C51.4478 17.8706 51.4078 17.6049 51.3855 17.3336C50.9442 12.1008 49.9918 6.19172 54.8309 5.86008C66.031 5.09741 68.4515 10.6303 68.8966 15.8631C68.9189 16.1343 68.9245 16.4028 68.9263 16.6694C71.4118 16.952 73.8691 17.443 76.2723 18.1372C76.3559 17.8901 76.4433 17.6439 76.5511 17.4005C78.5869 12.6628 78.2189 9.50438 82.8452 11.2805C92.9341 15.1496 94.5462 20.8646 92.5086 25.6004C92.4027 25.8484 92.2819 26.0835 92.1592 26.3157C94.1988 27.9116 96.1124 29.6623 97.8829 31.5522C98.0734 31.3822 98.2676 31.2141 98.4748 31.0589C102.44 28.0863 107.925 29.1917 110.725 33.5207C113.524 37.8496 112.578 43.7661 108.611 46.7351C108.408 46.8874 108.198 47.0221 107.988 47.1522C109.028 49.6203 109.886 52.1613 110.555 54.7547C110.798 54.712 111.043 54.673 111.298 54.6516C116.13 54.2448 120.404 58.1575 120.85 63.3913C121.296 68.625 117.729 73.1973 112.895 73.6042C112.645 73.6256 112.396 73.6283 112.151 73.6265C111.926 76.295 111.505 78.9434 110.892 81.5505C111.122 81.6434 111.35 81.7419 111.576 81.858C115.984 84.1228 117.906 89.7968 115.871 94.5336C113.835 99.2703 108.613 101.273 104.206 99.0084C103.975 98.8904 103.755 98.7575 103.539 98.621C102.11 100.781 100.517 102.827 98.7721 104.741C98.9328 104.95 99.0899 105.162 99.2367 105.391C102.035 109.72 101.089 115.637 97.1228 118.607C93.1562 121.576 84.5707 120.217 81.7721 115.888C81.6281 115.666 84.6023 115.694 84.4787 115.465C82.2257 116.551 79.8853 117.446 77.4821 118.139C77.5248 118.403 77.5639 118.669 77.5871 118.94C78.0275 124.173 74.466 128.746 69.6316 129.153C64.7971 129.56 60.5201 125.647 60.0797 120.414C60.0565 120.143 60.0509 119.875 60.0491 119.608C57.5636 119.325 55.1063 118.834 52.7031 118.14C52.6195 118.387 52.533 118.633 52.4243 118.877C50.3895 123.615 45.1666 125.616 40.7596 123.352C36.3525 121.087 34.4292 115.413 36.465 110.677C36.5709 110.43 36.6907 110.194 36.8143 109.962C34.7745 108.366 32.8609 106.615 31.0906 104.725C30.9048 104.895 30.706 105.063 30.4988 105.218C26.5322 108.191 21.0473 107.086 18.2486 102.757C15.45 98.4278 16.3959 92.5112 20.3625 89.5423C20.5651 89.3899 20.775 89.2562 20.985 89.1252C19.9449 86.6571 19.0872 84.1161 18.4187 81.5226C18.1715 81.5616 17.9262 81.6006 17.6763 81.622ZM67.3867 102.543C84.9396 101.065 97.8717 84.4628 96.2708 65.461C94.6698 46.4592 79.137 32.2527 61.5859 33.7306C44.0349 35.2086 31.099 51.8137 32.7018 70.8136C34.3046 89.8135 49.8301 104.021 67.383 102.543H67.3867Z" fill="#BFC6D1"/>
<path d="M17.4004 54.4148C12.9933 52.15 11.0709 46.4759 13.1057 41.7392C15.1406 37.0024 20.3644 34.9996 24.7714 37.2644C25.0019 37.3824 25.2212 37.5152 25.4376 37.6518C26.8667 35.4922 28.4603 33.4462 30.2043 31.5318C30.0445 31.3237 29.8865 31.111 29.7397 30.8815C26.9401 26.5526 24.79 17.9691 29.04 15.4191C37.1061 10.5885 41.305 15.7999 44.1027 20.1279C44.2458 20.35 44.3731 20.5785 44.4976 20.8079C46.7506 19.7215 49.0911 18.8269 51.4943 18.1335C51.4515 17.8697 51.4116 17.604 51.3893 17.3327C51.1486 14.4845 52.101 11.8379 53.7921 9.94659C54.8699 18.1301 55.879 26.3216 56.8193 34.5212C41.7548 38.3122 31.2496 53.5722 32.7019 70.809C33.9321 85.414 43.3938 97.1764 55.6755 101.171C55.6477 102.768 55.6058 104.368 55.6207 105.967C55.6607 110.305 55.9422 114.652 56.2284 118.996C55.0366 118.755 53.8596 118.467 52.6975 118.132C52.6139 118.379 52.5275 118.625 52.4188 118.868C50.3839 123.606 45.8357 126.486 37.7268 122.677C33.2417 120.572 34.4236 115.403 36.4594 110.667C36.5653 110.42 36.6852 110.184 36.8088 109.951C34.769 108.356 32.8554 106.605 31.0851 104.715C30.8993 104.885 30.7004 105.053 30.4932 105.208C26.5266 108.181 17.6289 106.509 14.8293 102.182C12.0298 97.8546 16.3903 92.501 20.3569 89.5321C20.5595 89.3797 20.7695 89.245 20.9795 89.114C19.9394 86.6463 19.0816 84.1056 18.4131 81.5124C18.1697 81.5551 17.9244 81.5941 17.6745 81.6155C12.8428 82.0224 8.56304 78.1096 8.12261 72.8759C7.68219 67.6422 11.2428 63.0698 16.0782 62.663C16.3281 62.6416 16.5762 62.6388 16.8215 62.6407C17.047 59.9721 17.4678 57.3237 18.0805 54.7167C17.8556 54.6293 17.6271 54.5318 17.4004 54.4148Z" fill="#BFC6D1"/>
<path d="M13.1664 80.3614C8.33478 80.7683 4.05596 76.8564 3.6146 71.6227C3.17325 66.389 6.73569 61.8157 11.5701 61.4042C11.8201 61.3828 12.0682 61.381 12.3135 61.3828C12.5389 58.714 12.9597 56.0652 13.5725 53.4579C13.343 53.365 13.1135 53.2665 12.8877 53.1504C8.48065 50.8866 6.55821 45.2116 8.59402 40.4757C10.6298 35.7399 15.8517 33.7362 20.2588 36C20.4892 36.1189 20.7085 36.2518 20.925 36.3874C22.3545 34.228 23.9484 32.1819 25.6925 30.2675C25.5318 30.0594 25.3738 29.8476 25.228 29.6172C22.4293 25.2882 23.3752 19.3717 27.3418 16.4028C31.3084 13.4338 36.7924 14.5356 39.591 18.8645C39.735 19.0865 39.8614 19.3141 39.9859 19.5436C42.2388 18.4572 44.5793 17.5625 46.9825 16.8691C46.9398 16.6053 46.9008 16.3405 46.8775 16.0693C46.4362 10.8356 49.9986 6.2623 54.8331 5.85542C59.6675 5.44854 63.9435 9.3613 64.3849 14.595C64.4072 14.8663 64.4137 15.1338 64.4156 15.4014C66.9007 15.6836 69.3577 16.1743 71.7606 16.8682C71.8452 16.6211 71.9316 16.3749 72.0394 16.1325C74.0752 11.3948 79.298 9.39288 83.705 11.6568C88.1121 13.9206 90.0355 19.5956 87.9997 24.3314C87.8937 24.5795 87.7739 24.8145 87.6503 25.0467C89.6901 26.6427 91.6037 28.3937 93.374 30.2842C93.5644 30.1132 93.7586 29.9451 93.9659 29.79C97.9325 26.8173 103.416 27.9228 106.216 32.2517C109.016 36.5806 108.069 42.4972 104.102 45.4661C103.9 45.6184 103.69 45.7531 103.479 45.8841C104.519 48.3518 105.377 50.8925 106.046 53.4858C106.289 53.443 106.534 53.404 106.789 53.3836C111.621 52.9758 115.901 56.8885 116.341 62.1223C116.782 67.356 113.22 71.9283 108.386 72.3408C108.136 72.3612 107.888 72.364 107.642 72.3621C107.417 75.031 106.996 77.6797 106.383 80.2871C106.613 80.38 106.842 80.4784 107.068 80.5936C111.475 82.8584 113.398 88.5334 111.363 93.2692C109.328 98.0051 104.104 100.009 99.6969 97.7449C99.4665 97.626 99.2472 97.4932 99.0307 97.3566C97.6016 99.5164 96.0077 101.562 94.2632 103.477C94.4239 103.686 94.5819 103.897 94.7278 104.127C97.5264 108.456 96.5805 114.371 92.6139 117.341C88.6473 120.311 83.1633 119.208 80.3647 114.88C80.2207 114.658 80.0943 114.429 79.9698 114.2C77.7167 115.286 75.3763 116.181 72.9732 116.875C73.0159 117.139 73.055 117.403 73.0782 117.675C73.5195 122.908 69.9571 127.481 65.1226 127.888C60.2882 128.295 56.0168 124.383 55.5708 119.149C55.5476 118.878 55.542 118.609 55.5411 118.343C53.0556 118.06 50.5983 117.57 48.1951 116.876C48.1115 117.123 48.0241 117.369 47.9163 117.612C45.8805 122.349 40.6577 124.351 36.2506 122.087C31.8436 119.823 29.9202 114.148 31.956 109.412C32.062 109.165 32.1818 108.929 32.3054 108.696C30.2654 107.101 28.3518 105.35 26.5817 103.46C26.3959 103.631 26.1971 103.798 25.9899 103.953C22.0233 106.926 16.5393 105.821 13.7397 101.492C10.9402 97.1634 11.887 91.2469 15.8536 88.277C16.0571 88.1256 16.2661 87.9909 16.4771 87.8599C15.4362 85.392 14.5781 82.851 13.9098 80.2573C13.6617 80.301 13.4173 80.34 13.1664 80.3614ZM62.8769 101.282C80.4297 99.8044 93.3619 83.2021 91.7609 64.2003C90.16 45.1986 74.6327 30.992 57.0798 32.4709C39.5269 33.9498 26.591 50.5503 28.192 69.5567C29.7929 88.5631 45.3156 102.76 62.8769 101.282Z" fill="#D8DEE8"/>
<path d="M99.2178 60.6843V105.46C99.2178 106.946 98.2013 108.127 96.9506 108.096L22.9591 106.285C21.8209 106.257 20.8992 105.087 20.8992 103.673V61.0456L99.2178 60.6843Z" fill="white"/>
<path d="M22.9591 55.6168L96.9506 55.0186C98.2013 55.0083 99.2178 56.2048 99.2178 57.6921V62.2802L20.8992 62.5645V58.1984C20.8992 56.7808 21.8209 55.6224 22.9591 55.6168Z" fill="url(#paint7_linear_1511_13864)"/>
<path d="M80.7373 84.3272L76.6016 66.9919C70.3669 69.4072 65.8781 76.3995 65.8447 84.6672L80.7373 84.3272Z" fill="url(#paint8_linear_1511_13864)"/>
<path d="M69.6784 85.793C69.9089 89.7355 71.4819 93.2535 73.8541 95.6827L80.3379 85.5413L69.6784 85.793Z" fill="#F4F7FA"/>
<path d="M81.6632 83.7409C84.1719 80.8825 87.2113 77.424 89.6299 74.6492C87.4844 72.2042 84.5901 70.703 81.4151 70.6984C80.4721 70.6965 79.5335 70.8285 78.6276 71.0904L81.6632 83.7409Z" fill="#F4F7FA"/>
<path d="M82.187 84.8324L91.3234 92.9664C92.6056 90.7099 93.3555 87.9788 93.3555 85.0294C93.3555 81.3925 92.2163 78.0622 90.3422 75.5336C89.672 76.3009 88.9286 77.1512 88.1122 78.0845C85.6416 80.9029 83.1654 83.7195 82.187 84.8324Z" fill="#F4F7FA"/>
<path d="M81.926 86.1088L82.1016 99.1039C85.572 98.9339 88.6568 96.9673 90.7168 93.9445L81.926 86.1088Z" fill="#F4F7FA"/>
<path d="M80.9149 86.6495L74.6533 96.436C76.4791 98.006 78.6895 98.9795 81.084 99.104L80.9149 86.6495Z" fill="#F4F7FA"/>
<path d="M26.2516 74.9103L63.748 75.0719V70.7012L26.2516 70.6426V74.9103Z" fill="#D8DEE8"/>
<path d="M26.2516 82.6337L63.748 82.9811V78.6104L26.2516 78.3661V82.6337Z" fill="#D8DEE8"/>
<path d="M26.2516 90.357L63.748 90.8893V86.5185L26.2516 86.0894V90.357Z" fill="#D8DEE8"/>
<path d="M26.2516 98.0803L63.748 98.7984V94.4277L26.2516 93.8118V98.0803Z" fill="#D8DEE8"/>
<path d="M23.9228 59.1907C23.9228 59.8494 24.3725 60.3807 24.9263 60.3779C25.4801 60.3751 25.9316 59.8382 25.9316 59.1786C25.9316 58.5191 25.481 57.9877 24.9263 57.9905C24.3716 57.9933 23.9228 58.5321 23.9228 59.1907Z" fill="white"/>
<path d="M177.026 157.794V212.068C177.026 213.87 175.768 215.255 174.219 215.162L83.174 209.701C81.7803 209.617 80.6551 208.169 80.6551 206.464V155.131L177.026 157.794Z" fill="white"/>
<path d="M83.174 148.674L174.219 150.84C175.768 150.878 177.026 152.368 177.026 154.17V159.731L80.6551 156.964V151.704C80.6551 149.996 81.7821 148.642 83.174 148.674Z" fill="url(#paint9_linear_1511_13864)"/>
<path d="M90.451 200.823L166.205 204.95V167.946L90.451 165.405V200.823Z" fill="#F4F7FA"/>
<path d="M90.4518 200.824L166.201 204.95V181.162C163.722 197.215 161.082 200.664 159.093 200.734C156.294 200.832 154.788 194.237 150.559 193.859C146.363 193.483 144.947 199.735 141.806 199.358C135.839 198.641 134.217 175.182 129.383 174.833C125.545 174.555 122.95 189.113 119.571 188.378C117.102 187.841 116.505 179.631 114.636 179.636C112.942 179.642 112.871 186.392 110.641 186.917C107.376 187.687 104.202 173.967 99.7044 173.699C97.2152 173.551 94.1164 177.513 90.4462 191.283L90.4518 200.824Z" fill="url(#paint10_linear_1511_13864)"/>
<path d="M83.7342 152.864C83.7342 153.662 84.2917 154.324 84.9756 154.342C85.6594 154.359 86.2197 153.728 86.2197 152.929C86.2197 152.13 85.6622 151.467 84.9756 151.45C84.2889 151.432 83.7342 152.065 83.7342 152.864Z" fill="white"/>
<path d="M253.045 57.837V135.651C253.045 138.234 251.165 140.296 248.851 140.257L115.875 137.986C113.886 137.952 112.278 135.989 112.278 133.603V61.6949L253.045 57.837Z" fill="white"/>
<path d="M115.875 52.4491L248.851 48.0979C251.165 48.0217 253.045 50.0543 253.045 52.6377V60.6119L112.276 64.2589V56.8895C112.278 54.5021 113.889 52.5142 115.875 52.4491Z" fill="url(#paint11_linear_1511_13864)"/>
<path d="M116.203 58.4489C116.203 59.5915 117.032 60.4926 118.055 60.4656C119.078 60.4387 119.913 59.4846 119.913 58.3402C119.913 57.1957 119.082 56.2965 118.055 56.3234C117.027 56.3503 116.203 57.3062 116.203 58.4489Z" fill="white"/>
<path d="M224.292 129.771L234.769 129.892V72.0649L224.292 72.274V129.771Z" fill="#F4F7FA"/>
<path d="M224.292 129.771L234.769 129.892V102.437L224.292 102.472V129.771Z" fill="url(#paint12_linear_1511_13864)"/>
<path d="M209.914 129.604L220.225 129.724V72.3547L209.914 72.56V129.604Z" fill="#F4F7FA"/>
<path d="M209.914 129.604L220.225 129.724V116.105L209.914 116.063V129.604Z" fill="url(#paint13_linear_1511_13864)"/>
<path d="M195.761 129.441L205.911 129.559V72.64L195.761 72.8425V129.441Z" fill="#F4F7FA"/>
<path d="M195.761 129.441L205.911 129.559V122.464L195.761 122.387V129.441Z" fill="url(#paint14_linear_1511_13864)"/>
<path d="M181.825 129.28L191.819 129.395V72.9214L181.825 73.1202V129.28Z" fill="#F4F7FA"/>
<path d="M181.825 129.28L191.819 129.395V85.1548L181.825 85.2858V129.28Z" fill="url(#paint15_linear_1511_13864)"/>
<path d="M168.107 129.121L177.946 129.236V73.1973L168.107 73.3933V129.121Z" fill="#F4F7FA"/>
<path d="M168.107 129.121L177.946 129.236V90.3245L168.107 90.4266V129.121Z" fill="url(#paint16_linear_1511_13864)"/>
<path d="M154.596 128.965L164.286 129.078V73.4695L154.596 73.6627V128.965Z" fill="#F4F7FA"/>
<path d="M154.596 128.965L164.286 129.078V81.5551L154.596 81.7037V128.965Z" fill="url(#paint17_linear_1511_13864)"/>
<path d="M141.29 128.811L150.833 128.922V73.7379L141.29 73.9283V128.811Z" fill="#F4F7FA"/>
<path d="M141.29 128.811L150.833 128.922V95.0259L141.29 95.1002V128.811Z" fill="url(#paint18_linear_1511_13864)"/>
<path d="M128.184 128.66L137.584 128.768V74.0018L128.184 74.1894V128.66Z" fill="#F4F7FA"/>
<path d="M128.184 128.66L137.584 128.768V109.755L128.184 109.749V128.66Z" fill="url(#paint19_linear_1511_13864)"/>
<path d="M258.208 164.059V209.231C258.208 210.73 257.226 211.891 256.014 211.824L184.247 207.813C183.141 207.751 182.244 206.541 182.244 205.109V161.993L258.208 164.059Z" fill="white"/>
<path d="M184.247 156.567L256.014 158.272C257.222 158.301 258.208 159.539 258.208 161.039V165.668L182.244 163.532V159.108C182.244 157.68 183.141 156.54 184.247 156.567Z" fill="url(#paint20_linear_1511_13864)"/>
<path d="M185.696 160.034C185.696 160.699 186.131 161.249 186.667 161.264C187.203 161.278 187.64 160.75 187.64 160.084C187.64 159.418 187.204 158.868 186.667 158.855C186.13 158.842 185.696 159.373 185.696 160.034Z" fill="white"/>
<path d="M246.658 185.698C245.992 184.112 244.743 182.952 243.276 182.681L243.173 174.958C247.345 175.3 250.916 178.638 252.509 183.238L246.658 185.698Z" fill="url(#paint21_linear_1511_13864)"/>
<path d="M242.101 182.66C240.118 182.954 238.57 184.917 238.384 187.425L232.26 187.484C232.338 180.657 236.589 175.239 241.995 174.943L242.101 182.66Z" fill="#D8DEE8"/>
<path d="M238.436 188.887C238.796 191.475 240.592 193.511 242.76 193.609C243.383 193.637 244.002 193.501 244.556 193.215L247.82 199.95C246.315 200.913 244.548 201.384 242.764 201.299C237.291 201.025 232.822 195.606 232.314 188.944L238.436 188.887Z" fill="#D8DEE8"/>
<path d="M248.826 199.224L245.557 192.487C246.544 191.522 247.174 190.017 247.174 188.301C247.174 187.897 247.138 187.492 247.067 187.094L252.921 184.639C253.235 185.924 253.394 187.243 253.393 188.566C253.393 193.068 251.583 196.963 248.826 199.224Z" fill="#D8DEE8"/>
<path d="M223.862 184.775C223.211 183.213 221.999 182.068 220.571 181.802L220.472 174.185C224.531 174.519 227.998 177.808 229.552 182.346L223.862 184.775Z" fill="#D8DEE8"/>
<path d="M219.431 181.782C217.503 182.074 215.999 184.011 215.82 186.484L209.861 186.546C209.937 179.812 214.073 174.469 219.331 174.17L219.431 181.782Z" fill="url(#paint22_linear_1511_13864)"/>
<path d="M215.864 187.926C216.214 190.478 217.962 192.485 220.07 192.581C220.677 192.608 221.28 192.473 221.817 192.191L224.993 198.831C223.532 199.781 221.809 200.248 220.069 200.165C214.744 199.899 210.396 194.557 209.903 187.982L215.864 187.926Z" fill="#D8DEE8"/>
<path d="M225.972 198.116L222.787 191.473C223.752 190.52 224.367 189.036 224.367 187.348C224.367 186.948 224.332 186.549 224.263 186.155L229.954 183.725C230.26 184.994 230.414 186.294 230.413 187.598C230.413 192.04 228.654 195.884 225.972 198.116Z" fill="#D8DEE8"/>
<path d="M201.684 183.879C201.054 182.337 199.871 181.209 198.483 180.948L198.39 173.434C202.34 173.762 205.719 177.007 207.227 181.48L201.684 183.879Z" fill="#D8DEE8"/>
<path d="M197.373 180.928C195.497 181.217 194.034 183.129 193.859 185.573L188.06 185.636C188.133 178.994 192.159 173.717 197.276 173.423L197.373 180.928Z" fill="#D8DEE8"/>
<path d="M193.903 186.992C194.244 189.509 195.947 191.488 197.991 191.581C198.583 191.607 199.17 191.474 199.692 191.194L202.782 197.742C201.366 198.68 199.688 199.142 197.991 199.062C192.81 198.803 188.578 193.536 188.099 187.05L193.903 186.992Z" fill="#D8DEE8"/>
<path d="M203.739 197.036L200.646 190.486C201.575 189.545 202.176 188.081 202.176 186.412C202.176 186.017 202.142 185.623 202.075 185.234L207.615 182.839C207.912 184.091 208.062 185.373 208.061 186.659C208.059 191.042 206.347 194.833 203.739 197.036Z" fill="url(#paint23_linear_1511_13864)"/>
</g>
<defs>
<linearGradient id="paint0_linear_1511_13864" x1="1.68657" y1="26.2631" x2="329.033" y2="58.7169" gradientUnits="userSpaceOnUse">
<stop stop-color="#7C4EAB"/>
<stop offset="1" stop-color="#DD51D4"/>
</linearGradient>
<linearGradient id="paint1_linear_1511_13864" x1="152.166" y1="247.281" x2="170.655" y2="255.048" gradientUnits="userSpaceOnUse">
<stop stop-color="#40447E"/>
<stop offset="1" stop-color="#3C3B6B"/>
</linearGradient>
<linearGradient id="paint2_linear_1511_13864" x1="-230699" y1="261614" x2="-201362" y2="280081" gradientUnits="userSpaceOnUse">
<stop stop-color="#40447E"/>
<stop offset="1" stop-color="#3C3B6B"/>
</linearGradient>
<linearGradient id="paint3_linear_1511_13864" x1="-77054.5" y1="266461" x2="-406545" y2="266461" gradientUnits="userSpaceOnUse">
<stop stop-color="#40447E"/>
<stop offset="1" stop-color="#3C3B6B"/>
</linearGradient>
<linearGradient id="paint4_linear_1511_13864" x1="94.5321" y1="137.933" x2="289.1" y2="168.654" gradientUnits="userSpaceOnUse">
<stop stop-color="#7C4EAB"/>
<stop offset="1" stop-color="#DD51D4"/>
</linearGradient>
<linearGradient id="paint5_linear_1511_13864" x1="-116214" y1="67794.2" x2="-863973" y2="67794.2" gradientUnits="userSpaceOnUse">
<stop stop-color="#40447E"/>
<stop offset="1" stop-color="#3C3B6B"/>
</linearGradient>
<linearGradient id="paint6_linear_1511_13864" x1="-66818.6" y1="39493.3" x2="-468241" y2="39493.3" gradientUnits="userSpaceOnUse">
<stop stop-color="#40447E"/>
<stop offset="1" stop-color="#3C3B6B"/>
</linearGradient>
<linearGradient id="paint7_linear_1511_13864" x1="-211467" y1="6619.72" x2="-211097" y2="12899.1" gradientUnits="userSpaceOnUse">
<stop stop-color="#FFC444"/>
<stop offset="1" stop-color="#F36F56"/>
</linearGradient>
<linearGradient id="paint8_linear_1511_13864" x1="-116045" y1="19050.4" x2="-112461" y2="29729.8" gradientUnits="userSpaceOnUse">
<stop stop-color="#FFC444"/>
<stop offset="1" stop-color="#F36F56"/>
</linearGradient>
<linearGradient id="paint9_linear_1511_13864" x1="120.632" y1="141.619" x2="164.987" y2="214.147" gradientUnits="userSpaceOnUse">
<stop stop-color="#AA80F9"/>
<stop offset="1" stop-color="#6165D7"/>
</linearGradient>
<linearGradient id="paint10_linear_1511_13864" x1="-140207" y1="69580.3" x2="-141433" y2="86385.1" gradientUnits="userSpaceOnUse">
<stop stop-color="#AA80F9"/>
<stop offset="1" stop-color="#6165D7"/>
</linearGradient>
<linearGradient id="paint11_linear_1511_13864" x1="171.63" y1="39.7066" x2="231.246" y2="137.188" gradientUnits="userSpaceOnUse">
<stop stop-color="#FF9085"/>
<stop offset="1" stop-color="#FB6FBB"/>
</linearGradient>
<linearGradient id="paint12_linear_1511_13864" x1="-5025.41" y1="28566.7" x2="2338.02" y2="37335" gradientUnits="userSpaceOnUse">
<stop stop-color="#FF9085"/>
<stop offset="1" stop-color="#FB6FBB"/>
</linearGradient>
<linearGradient id="paint13_linear_1511_13864" x1="-6253.82" y1="16544.9" x2="-4778.55" y2="20019.6" gradientUnits="userSpaceOnUse">
<stop stop-color="#FF9085"/>
<stop offset="1" stop-color="#FB6FBB"/>
</linearGradient>
<linearGradient id="paint14_linear_1511_13864" x1="-7578.59" y1="9302.43" x2="-7293.72" y2="10560.7" gradientUnits="userSpaceOnUse">
<stop stop-color="#FF9085"/>
<stop offset="1" stop-color="#FB6FBB"/>
</linearGradient>
<linearGradient id="paint15_linear_1511_13864" x1="-9777.2" y1="36783.1" x2="7665.6" y2="49079.8" gradientUnits="userSpaceOnUse">
<stop stop-color="#FF9085"/>
<stop offset="1" stop-color="#FB6FBB"/>
</linearGradient>
<linearGradient id="paint16_linear_1511_13864" x1="-10983.4" y1="34821.7" x2="3067" y2="45908.8" gradientUnits="userSpaceOnUse">
<stop stop-color="#FF9085"/>
<stop offset="1" stop-color="#FB6FBB"/>
</linearGradient>
<linearGradient id="paint17_linear_1511_13864" x1="-12423.7" y1="37485.2" x2="6803.04" y2="49720.1" gradientUnits="userSpaceOnUse">
<stop stop-color="#FF9085"/>
<stop offset="1" stop-color="#FB6FBB"/>
</linearGradient>
<linearGradient id="paint18_linear_1511_13864" x1="-13338.7" y1="32312.3" x2="-2370.42" y2="41949.1" gradientUnits="userSpaceOnUse">
<stop stop-color="#FF9085"/>
<stop offset="1" stop-color="#FB6FBB"/>
</linearGradient>
<linearGradient id="paint19_linear_1511_13864" x1="-14181.1" y1="21585" x2="-10796.3" y2="26805.4" gradientUnits="userSpaceOnUse">
<stop stop-color="#FF9085"/>
<stop offset="1" stop-color="#FB6FBB"/>
</linearGradient>
<linearGradient id="paint20_linear_1511_13864" x1="213.696" y1="151.151" x2="248.895" y2="208.706" gradientUnits="userSpaceOnUse">
<stop stop-color="#E38DDD"/>
<stop offset="1" stop-color="#9571F6"/>
</linearGradient>
<linearGradient id="paint21_linear_1511_13864" x1="-6005.78" y1="23923.7" x2="-4235.14" y2="26366.9" gradientUnits="userSpaceOnUse">
<stop stop-color="#FF9085"/>
<stop offset="1" stop-color="#FB6FBB"/>
</linearGradient>
<linearGradient id="paint22_linear_1511_13864" x1="-9000.58" y1="27683.3" x2="-9454.91" y2="34408.9" gradientUnits="userSpaceOnUse">
<stop stop-color="#FFC444"/>
<stop offset="1" stop-color="#F36F56"/>
</linearGradient>
<linearGradient id="paint23_linear_1511_13864" x1="-7841.15" y1="32784.4" x2="-6729.6" y2="39372.7" gradientUnits="userSpaceOnUse">
<stop stop-color="#AA80F9"/>
<stop offset="1" stop-color="#6165D7"/>
</linearGradient>
<clipPath id="clip0_1511_13864">
<rect width="270" height="270" fill="white" transform="matrix(-1 0 0 1 270 0.5)"/>
</clipPath>
</defs>
</svg>
