<svg width="180" height="40" viewBox="0 0 180 40" fill="none" xmlns="http://www.w3.org/2000/svg">
<path d="M58.2032 25.7342C57.6089 25.7342 56.9237 25.6434 56.1478 25.4618L53.6961 24.7932L54.3648 22.7873C55.7516 23.2826 56.9072 23.5302 57.8318 23.5302C58.3271 23.5302 58.7398 23.4146 59.07 23.1835C59.4002 22.9524 59.5653 22.6387 59.5653 22.2425C59.5653 21.8462 59.458 21.5491 59.2433 21.3509C59.0287 21.1528 58.6325 20.9795 58.0546 20.8309L56.7174 20.4842C54.8683 20.0054 53.9438 18.9158 53.9438 17.2153C53.9438 16.1917 54.3317 15.3497 55.1077 14.6893C55.9002 14.029 56.932 13.6988 58.2032 13.6988C58.715 13.6988 59.3176 13.7896 60.011 13.9712L62.4627 14.6398L61.7941 16.6457C60.4568 16.1504 59.4415 15.9028 58.7481 15.9028C58.2858 15.9028 57.8978 16.0266 57.5841 16.2743C57.2704 16.5054 57.1136 16.8108 57.1136 17.1905C57.1136 17.5868 57.2209 17.8839 57.4355 18.0821C57.6502 18.2802 58.0464 18.4535 58.6242 18.6021L59.9367 18.9488C60.9273 19.213 61.6372 19.6174 62.0665 20.1623C62.4957 20.6906 62.7103 21.3757 62.7103 22.2177C62.7103 23.2248 62.3306 24.0668 61.5712 24.7437C60.8117 25.404 59.6891 25.7342 58.2032 25.7342ZM68.7946 25.7342C67.5564 25.7342 66.6814 25.4288 66.1696 24.818C65.6743 24.2071 65.4267 23.2743 65.4267 22.0196V16.1009H63.5941V13.9217H65.4267V11.0242L68.5717 10.4051V13.9217H71.2958V16.1009H68.5717V22.0691C68.5717 23.0432 68.968 23.5302 69.7604 23.5302C70.2392 23.5302 70.751 23.3816 71.2958 23.0844L71.7911 24.9418C70.8831 25.4701 69.8843 25.7342 68.7946 25.7342ZM76.5056 25.7342C75.383 25.7342 74.4914 25.3875 73.8311 24.6941C73.1707 24.0007 72.8405 23.1753 72.8405 22.2177C72.8405 21.5078 73.0716 20.9382 73.5339 20.509C74.0127 20.0632 74.7556 19.7165 75.7627 19.4689L79.7497 18.4783V17.4629C79.7497 16.9842 79.6012 16.6045 79.304 16.3238C79.0233 16.0431 78.6271 15.9028 78.1153 15.9028C77.5375 15.9028 76.2332 16.3403 74.2025 17.2153L73.3358 15.2094L76.1589 14.1693C77.0174 13.8556 77.6448 13.6988 78.041 13.6988C79.5434 13.6988 80.7238 14.095 81.5823 14.8875C82.4573 15.6634 82.8948 16.687 82.8948 17.9582V22.2177C82.8948 22.5314 82.9443 23.0019 83.0434 23.6293C83.159 24.2401 83.3075 24.7602 83.4892 25.1894L80.7898 25.7342C80.4597 25.371 80.113 24.8675 79.7497 24.2236C78.6436 25.2307 77.5622 25.7342 76.5056 25.7342ZM77.62 23.5302C78.2639 23.5302 78.9738 23.1587 79.7497 22.4158V19.9146L77.2733 20.6328C76.4809 20.8639 76.0846 21.3014 76.0846 21.9453C76.0846 22.4406 76.225 22.8286 76.5056 23.1092C76.7863 23.3899 77.1577 23.5302 77.62 23.5302ZM89.4361 25.7342C88.1979 25.7342 87.3228 25.4288 86.8111 24.818C86.3158 24.2071 86.0681 23.2743 86.0681 22.0196V16.1009H84.2356V13.9217H86.0681V11.0242L89.2132 10.4051V13.9217H91.9373V16.1009H89.2132V22.0691C89.2132 23.0432 89.6094 23.5302 90.4019 23.5302C90.8807 23.5302 91.3925 23.3816 91.9373 23.0844L92.4326 24.9418C91.5245 25.4701 90.5257 25.7342 89.4361 25.7342ZM124.412 25.5114H121.267V18.7507C121.267 17.7601 121.119 17.042 120.822 16.5962C120.541 16.1339 120.087 15.9028 119.46 15.9028C118.832 15.9028 118.155 16.2743 117.429 17.0172V25.5114H114.284V18.7507C114.284 17.7601 114.143 17.042 113.863 16.5962C113.582 16.1339 113.12 15.9028 112.476 15.9028C111.865 15.9028 111.188 16.2743 110.445 17.0172V25.5114H107.3V17.2153C107.3 16.9016 107.242 16.4394 107.127 15.8285C107.028 15.2011 106.887 14.6728 106.706 14.2436L109.38 13.6988C109.727 14.0455 110.082 14.549 110.445 15.2094C111.485 14.2023 112.567 13.6988 113.689 13.6988C115.357 13.6988 116.488 14.2849 117.082 15.457C117.445 14.9783 117.965 14.5655 118.642 14.2188C119.319 13.8721 119.996 13.6988 120.673 13.6988C121.928 13.6988 122.86 14.062 123.471 14.7884C124.099 15.5148 124.412 16.6457 124.412 18.1811V25.5114ZM130.122 25.7342C129 25.7342 128.108 25.3875 127.448 24.6941C126.787 24.0007 126.457 23.1753 126.457 22.2177C126.457 21.5078 126.688 20.9382 127.151 20.509C127.629 20.0632 128.372 19.7165 129.379 19.4689L133.366 18.4783V17.4629C133.366 16.9842 133.218 16.6045 132.921 16.3238C132.64 16.0431 132.244 15.9028 131.732 15.9028C131.154 15.9028 129.85 16.3403 127.819 17.2153L126.952 15.2094L129.776 14.1693C130.634 13.8556 131.261 13.6988 131.658 13.6988C133.16 13.6988 134.34 14.095 135.199 14.8875C136.074 15.6634 136.511 16.687 136.511 17.9582V22.2177C136.511 22.5314 136.561 23.0019 136.66 23.6293C136.776 24.2401 136.924 24.7602 137.106 25.1894L134.407 25.7342C134.076 25.371 133.73 24.8675 133.366 24.2236C132.26 25.2307 131.179 25.7342 130.122 25.7342ZM131.237 23.5302C131.881 23.5302 132.59 23.1587 133.366 22.4158V19.9146L130.89 20.6328C130.098 20.8639 129.701 21.3014 129.701 21.9453C129.701 22.4406 129.842 22.8286 130.122 23.1092C130.403 23.3899 130.774 23.5302 131.237 23.5302ZM142.477 25.5114H139.332V17.2153C139.332 16.9016 139.275 16.4394 139.159 15.8285C139.06 15.2011 138.92 14.6728 138.738 14.2436L141.413 13.6988C141.924 14.2106 142.279 14.904 142.477 15.779C142.808 15.1186 143.245 14.6068 143.79 14.2436C144.351 13.8804 144.954 13.6988 145.598 13.6988C145.961 13.6988 146.291 13.7566 146.588 13.8721L146.043 16.5714H145.226C144.45 16.5714 143.839 16.7613 143.394 17.141C142.964 17.5042 142.659 18.1151 142.477 18.9736V25.5114ZM158.831 25.5114H154.968L151.129 19.5184V25.5114H147.984V8.96879L151.129 8.34968V18.6516L155.042 13.9217H158.583L153.928 19.0974L158.831 25.5114ZM164.468 25.7342C162.603 25.7342 161.191 25.1812 160.234 24.075C159.293 22.9524 158.822 21.483 158.822 19.667C158.822 17.8509 159.309 16.4063 160.283 15.3332C161.257 14.2436 162.611 13.6988 164.344 13.6988C167.696 13.6988 169.372 15.4405 169.372 18.924C169.372 19.2873 169.33 19.5927 169.248 19.8403H162.066C162.066 21.0785 162.289 22.0031 162.735 22.6139C163.197 23.2248 163.833 23.5302 164.642 23.5302C165.55 23.5302 166.738 23.2 168.208 22.5396L169.074 24.5455L166.449 25.5114C166.004 25.6599 165.343 25.7342 164.468 25.7342ZM164.171 15.9028C163.511 15.9028 162.991 16.1339 162.611 16.5962C162.248 17.0585 162.066 17.6363 162.066 18.3297H166.103C166.103 16.7118 165.459 15.9028 164.171 15.9028ZM175.539 25.7342C174.3 25.7342 173.425 25.4288 172.913 24.818C172.418 24.2071 172.171 23.2743 172.171 22.0196V16.1009H170.338V13.9217H172.171V11.0242L175.316 10.4051V13.9217H178.04V16.1009H175.316V22.0691C175.316 23.0432 175.712 23.5302 176.504 23.5302C176.983 23.5302 177.495 23.3816 178.04 23.0844L178.535 24.9418C177.627 25.4701 176.628 25.7342 175.539 25.7342Z" fill="#54618E"/>
<path d="M103.71 25.5114H100.713V21.6976H93.9525L93.2838 19.766L100.342 9.66219H103.71V19.3698H105.295V21.6976H103.71V25.5114ZM100.713 19.3698V12.9311L96.3298 19.3698H100.713Z" fill="#D653D2"/>
<mask id="mask0_1511_12185" style="mask-type:alpha" maskUnits="userSpaceOnUse" x="0" y="0" width="47" height="41">
<ellipse cx="23.5" cy="20.0002" rx="23.5" ry="20" fill="url(#paint0_linear_1511_12185)"/>
</mask>
<g mask="url(#mask0_1511_12185)">
<ellipse cx="23.5" cy="20.0002" rx="23.5" ry="20" fill="url(#paint1_linear_1511_12185)"/>
<path d="M30.974 25.551V3.32104C30.974 2.98104 30.9857 2.61104 31.0092 2.21104C31.0562 1.81104 31.1032 1.40104 31.1502 0.981036L9.57723 25.551H30.974ZM50.9433 25.551V27.111C50.9433 27.331 50.861 27.511 50.6965 27.651C50.5555 27.771 50.3205 27.831 49.9915 27.831H33.935V40.011H30.974V27.831H7.39173C7.03923 27.831 6.76898 27.771 6.58098 27.651C6.39298 27.511 6.26373 27.331 6.19323 27.111L5.87598 25.701L30.9387 -2.49896H33.935V25.551H50.9433Z" fill="white"/>
</g>
<defs>
<linearGradient id="paint0_linear_1511_12185" x1="54.05" y1="-11.9998" x2="21.9866" y2="44.7851" gradientUnits="userSpaceOnUse">
<stop stop-color="#FF00AA"/>
<stop offset="1" stop-color="#8912DE"/>
</linearGradient>
<linearGradient id="paint1_linear_1511_12185" x1="54.05" y1="-11.9998" x2="21.9866" y2="44.7851" gradientUnits="userSpaceOnUse">
<stop stop-color="#FF00AA"/>
<stop offset="1" stop-color="#8912DE"/>
</linearGradient>
</defs>
</svg>
