<svg width="269" height="266" viewBox="0 0 269 266" fill="none" xmlns="http://www.w3.org/2000/svg">
<path opacity="0.5" d="M242.851 50.8045C238.75 45.1788 203.641 -1.34903 146.733 0.917757C143.889 1.03027 88.3872 3.96827 67.9163 40.4405C52.7733 67.4198 68.8057 91.3564 50.332 109.738C34.2307 125.755 14.4523 115.153 4.56073 128.105C-10.5075 147.834 13.4843 201.118 50.3572 230.834C88.426 261.517 161.257 284.027 217.869 243.09C281.417 197.129 280.776 102.828 242.851 50.8045Z" fill="url(#paint0_linear_1525_19531)" fill-opacity="0.5"/>
<g style="mix-blend-mode:soft-light">
<g style="mix-blend-mode:soft-light">
<path d="M65.6892 168.486C60.4021 168.482 55.1209 168.134 49.8789 167.445L49.94 166.978C83.9195 171.413 105.748 160.285 108.137 158.995C96.1943 140.385 104.636 113.002 104.723 112.728L105.171 112.87C105.085 113.144 96.6463 140.526 108.669 158.952L108.804 159.159L108.589 159.283C108.396 159.391 92.3601 168.486 65.6892 168.486Z" fill="white"/>
</g>
</g>
<path d="M86.6772 144.705C86.3469 144.704 86.0286 144.581 85.7843 144.359C85.5401 144.136 85.3874 143.831 85.3561 143.502C84.1921 131.289 80.2095 119.683 74.1424 110.825C68.7679 102.977 62.3701 98.2945 57.0237 98.2945H57.0072C37.5353 98.3323 33.4615 143.038 33.4227 143.494C33.3839 143.839 33.2121 144.154 32.9441 144.374C32.6761 144.593 32.333 144.7 31.9878 144.67C31.6425 144.641 31.3225 144.477 31.0958 144.215C30.869 143.954 30.7535 143.613 30.7738 143.267C30.9406 141.328 35.1095 95.6834 57.0014 95.6426H57.0247C63.342 95.6426 70.379 100.629 76.3374 109.33C82.6538 118.553 86.7974 130.602 88.0031 143.256C88.0204 143.43 88.0031 143.606 87.9522 143.773C87.9013 143.941 87.8179 144.097 87.7067 144.232C87.5955 144.367 87.4587 144.479 87.3042 144.561C87.1497 144.643 86.9804 144.694 86.8062 144.711C86.7628 144.707 86.7198 144.705 86.6772 144.705Z" fill="url(#paint1_linear_1525_19531)"/>
<path d="M5.55602 236.713L31.189 249.69L46.7248 202.031L21.1296 138.134L13.8734 139.913L2.86245 231.671C2.73922 232.687 2.93165 233.715 3.41358 234.617C3.89551 235.519 4.64356 236.251 5.55602 236.713Z" fill="url(#paint2_linear_1525_19531)"/>
<path style="mix-blend-mode:multiply" opacity="0.52" d="M46.7258 202.031L21.1306 138.135L16.8512 139.188C16.3627 146.067 16.3863 152.973 16.922 159.848C18.6369 181.601 24.3344 187.655 21.5778 202.831C19.2828 215.449 14.2711 217.162 14.7085 225.652C15.1858 234.897 21.635 242.64 29.3025 248.729L31.1939 249.686L46.7258 202.031Z" fill="url(#paint3_linear_1525_19531)"/>
<path d="M21.1289 138.138H116.703L148.333 240.251L31.1883 249.69L21.1289 138.138Z" fill="url(#paint4_linear_1525_19531)"/>
<path d="M50.738 146.89C50.4378 146.891 50.1464 146.79 49.9111 146.603C49.6758 146.417 49.5105 146.156 49.4421 145.864C49.1705 144.706 42.891 117.347 51.7448 103.916C54.2822 100.069 57.8284 97.7184 62.2824 96.9327C85.1733 92.8996 99.2619 142.058 99.8507 144.153C99.9032 144.323 99.9211 144.501 99.9035 144.678C99.8859 144.855 99.8331 145.026 99.7482 145.182C99.6633 145.338 99.548 145.475 99.4092 145.586C99.2703 145.697 99.1107 145.778 98.9398 145.826C98.7688 145.874 98.59 145.888 98.4138 145.865C98.2376 145.843 98.0677 145.786 97.914 145.697C97.7604 145.608 97.626 145.489 97.519 145.347C97.412 145.206 97.3345 145.044 97.291 144.872C97.1533 144.387 83.2819 95.9249 62.7441 99.5506C58.9855 100.214 56.1135 102.121 53.965 105.38C45.734 117.862 51.9669 144.984 52.0309 145.257C52.1112 145.6 52.0519 145.962 51.8661 146.261C51.6802 146.561 51.3829 146.775 51.0396 146.855C50.9407 146.878 50.8395 146.89 50.738 146.89Z" fill="url(#paint5_linear_1525_19531)"/>
<g style="mix-blend-mode:multiply" opacity="0.3">
<path style="mix-blend-mode:multiply" opacity="0.3" d="M116.705 138.134H69.2912C66.9527 140.513 65.2931 143.254 65.134 146.33C64.3891 160.782 97.6023 165.523 100.806 185.322C103.117 199.606 88.8989 216.088 76.2128 223.43C62.8469 231.167 53.7904 227.249 44.7504 235.838C40.7794 239.612 38.3603 244.331 36.9219 249.224L148.335 240.247L116.705 138.134Z" fill="url(#paint6_linear_1525_19531)"/>
</g>
<path d="M54.4174 147.695C54.7461 145.67 53.3709 143.761 51.3457 143.433C49.3205 143.104 47.4122 144.479 47.0835 146.504C46.7548 148.53 48.13 150.438 50.1552 150.767C52.1804 151.095 54.0886 149.72 54.4174 147.695Z" fill="url(#paint7_linear_1525_19531)"/>
<path d="M103.411 146.882C103.739 144.851 102.359 142.938 100.328 142.61C98.2963 142.282 96.3836 143.662 96.0553 145.693C95.7271 147.724 97.1075 149.637 99.1387 149.965C101.17 150.294 103.083 148.913 103.411 146.882Z" fill="url(#paint8_linear_1525_19531)"/>
<path d="M186.873 32.2153C195.175 102.375 203.477 171.807 211.778 240.509C212.151 243.59 210.023 246.314 207.045 246.568C173.679 249.733 140.314 252.966 106.952 256.267C101 256.558 97.7313 253.23 97.3492 249.901C88.8045 175.739 80.2595 100.8 71.7142 25.0852C71.3262 21.6845 74.2119 18.762 80.1635 19.053C113.693 21.4456 147.221 23.8058 180.748 26.1337C183.747 26.3316 186.501 29.0659 186.873 32.2153Z" fill="#26264F"/>
<path d="M191.509 32.0698C199.864 102.54 208.218 172.269 216.571 241.256C216.946 244.347 214.806 247.087 211.809 247.342C177.164 250.276 142.519 253.269 107.874 256.319C104.713 256.6 101.807 254.096 101.422 250.75C92.8215 176.248 84.2212 100.96 75.6209 24.8873C75.2329 21.4721 77.5269 18.8513 80.7103 19.0676C115.588 21.3955 150.466 23.6943 185.343 25.9639C188.364 26.1638 191.135 28.9078 191.509 32.0698Z" fill="url(#paint9_linear_1525_19531)"/>
<path d="M189.494 43.5978C197.231 108.889 204.969 173.543 212.707 237.56C213.058 240.453 211.059 243.008 208.257 243.236C175.675 245.9 143.093 248.616 110.512 251.384C107.568 251.636 104.862 249.291 104.498 246.184C96.5446 177.37 88.5942 107.885 80.647 37.7286C80.2872 34.5539 82.4201 32.098 85.3824 32.2735C118.167 34.1824 150.951 36.0712 183.736 37.94C186.556 38.0991 189.145 40.6539 189.494 43.5978Z" fill="url(#paint10_linear_1525_19531)"/>
<path d="M189.494 43.5978C197.231 108.889 204.969 173.543 212.707 237.56C213.058 240.453 211.059 243.008 208.257 243.236C175.675 245.9 143.093 248.616 110.512 251.384C107.568 251.636 104.862 249.291 104.498 246.184C96.5446 177.37 88.5942 107.885 80.647 37.7286C80.2872 34.5539 82.4201 32.098 85.3824 32.2735C118.167 34.1824 150.951 36.0712 183.736 37.94C186.556 38.0991 189.145 40.6539 189.494 43.5978Z" fill="url(#paint11_linear_1525_19531)"/>
<g style="mix-blend-mode:multiply" opacity="0.35">
<path d="M183.74 37.938C151.344 36.0912 118.947 34.2247 86.5508 32.3385C87.6409 38.697 89.5542 44.8866 92.2425 50.7511C102.989 74.065 118.776 75.3483 124.951 95.6601C131.314 116.591 116.965 123.141 123.975 142.039C131.582 162.544 150.24 159.576 160.101 182.07C168.6 201.457 157.658 210.32 166.447 222.102C176.081 235.015 193.902 230.637 212.4 235.011C204.765 171.827 197.131 108.023 189.495 43.5987C189.146 40.6539 186.557 38.099 183.74 37.938Z" fill="url(#paint12_linear_1525_19531)"/>
</g>
<path d="M136.423 29.3317C136.555 30.4675 135.791 31.3366 134.719 31.2716C133.646 31.2066 132.666 30.2308 132.534 29.0901C132.402 27.9495 133.167 27.0784 134.24 27.1502C135.314 27.222 136.291 28.1949 136.423 29.3317Z" fill="#DE8BDF"/>
<path d="M148.126 92.4263C152.267 92.4263 155.624 88.4658 155.624 83.5803C155.624 78.6948 152.267 74.7343 148.126 74.7343C143.984 74.7343 140.627 78.6948 140.627 83.5803C140.627 88.4658 143.984 92.4263 148.126 92.4263Z" fill="#DD51D4"/>
<path d="M148.126 92.4263C152.267 92.4263 155.624 88.4658 155.624 83.5803C155.624 78.6948 152.267 74.7343 148.126 74.7343C143.984 74.7343 140.627 78.6948 140.627 83.5803C140.627 88.4658 143.984 92.4263 148.126 92.4263Z" fill="black" fill-opacity="0.2"/>
<path d="M177.974 92.4263C182.115 92.4263 185.472 88.4658 185.472 83.5803C185.472 78.6948 182.115 74.7343 177.974 74.7343C173.833 74.7343 170.477 78.6948 170.477 83.5803C170.477 88.4658 173.833 92.4263 177.974 92.4263Z" fill="#DD51D4"/>
<path d="M177.974 92.4263C182.115 92.4263 185.472 88.4658 185.472 83.5803C185.472 78.6948 182.115 74.7343 177.974 74.7343C173.833 74.7343 170.477 78.6948 170.477 83.5803C170.477 88.4658 173.833 92.4263 177.974 92.4263Z" fill="black" fill-opacity="0.2"/>
<path d="M162.967 92.4263C167.167 92.4263 170.572 88.4658 170.572 83.5803C170.572 78.6948 167.167 74.7343 162.967 74.7343C158.766 74.7343 155.361 78.6948 155.361 83.5803C155.361 88.4658 158.766 92.4263 162.967 92.4263Z" fill="#D8DEE8"/>
<path d="M207.823 92.4263C211.964 92.4263 215.322 88.4658 215.322 83.5803C215.322 78.6948 211.964 74.7343 207.823 74.7343C203.681 74.7343 200.324 78.6948 200.324 83.5803C200.324 88.4658 203.681 92.4263 207.823 92.4263Z" fill="#DD51D4"/>
<path d="M207.823 92.4263C211.964 92.4263 215.322 88.4658 215.322 83.5803C215.322 78.6948 211.964 74.7343 207.823 74.7343C203.681 74.7343 200.324 78.6948 200.324 83.5803C200.324 88.4658 203.681 92.4263 207.823 92.4263Z" fill="black" fill-opacity="0.2"/>
<path d="M192.816 92.4263C197.017 92.4263 200.422 88.4658 200.422 83.5803C200.422 78.6948 197.017 74.7343 192.816 74.7343C188.616 74.7343 185.211 78.6948 185.211 83.5803C185.211 88.4658 188.616 92.4263 192.816 92.4263Z" fill="#D8DEE8"/>
<path d="M222.664 92.4263C226.864 92.4263 230.269 88.4658 230.269 83.5803C230.269 78.6948 226.864 74.7343 222.664 74.7343C218.464 74.7343 215.059 78.6948 215.059 83.5803C215.059 88.4658 218.464 92.4263 222.664 92.4263Z" fill="#D8DEE8"/>
<path d="M133.121 92.4263C137.321 92.4263 140.726 88.4658 140.726 83.5803C140.726 78.6948 137.321 74.7343 133.121 74.7343C128.921 74.7343 125.516 78.6948 125.516 83.5803C125.516 88.4658 128.921 92.4263 133.121 92.4263Z" fill="#D8DEE8"/>
<path d="M79.1465 31.3957L125.676 84.7782H245.77L187.577 38.1563L79.1465 31.3957Z" fill="url(#paint13_linear_1525_19531)"/>
<path d="M79.1465 31.3957L125.676 84.7782H245.77L187.577 38.1563L79.1465 31.3957Z" fill="#DD51D4"/>
<path d="M79.1465 31.3957L125.676 84.7782H140.724L91.6628 32.1755L79.1465 31.3957Z" fill="#F4F7FA"/>
<path d="M105.102 33.0136L155.553 84.7782H170.416L118.64 33.8584L105.102 33.0136Z" fill="#F4F7FA"/>
<path d="M132.281 34.7081L185.317 84.7782H200.254L146.023 35.5655L132.281 34.7081Z" fill="#F4F7FA"/>
<path d="M173.823 37.2989L159.869 36.4288L215.224 84.7782H230.234L173.823 37.2989Z" fill="#F4F7FA"/>
<path d="M230.248 84.7782C230.745 89.0964 233.874 92.4273 237.669 92.4273C241.465 92.4273 244.595 89.0964 245.091 84.7782H230.248Z" fill="#DD51D4"/>
<path d="M230.248 84.7782C230.745 89.0964 233.874 92.4273 237.669 92.4273C241.465 92.4273 244.595 89.0964 245.091 84.7782H230.248Z" fill="black" fill-opacity="0.2"/>
<path opacity="0.63" d="M173.169 118.126C166.67 103.158 150.197 95.8881 136.366 101.889C122.535 107.89 116.589 124.89 123.083 139.859C129.578 154.828 146.056 162.096 159.886 156.095C173.717 150.094 179.664 133.091 173.169 118.126ZM152.775 139.458L153.329 143.673L149.277 144.205L148.765 140.278C145.979 140.519 143.194 140.128 141.504 139.425L142.108 134.425C143.969 135.147 146.522 135.696 149.21 135.342C151.566 135.033 153.059 133.911 152.841 132.258C152.635 130.686 151.181 129.869 147.991 129.237C143.372 128.33 140.083 126.66 139.552 122.65C139.075 119.013 141.263 115.824 145.572 114.374L145.056 110.447L149.107 109.916L149.585 113.553C152.371 113.312 154.307 113.65 155.758 114.129L155.176 118.958C154.042 118.644 152.015 117.943 149.038 118.335C146.352 118.687 145.636 119.959 145.788 121.117C145.968 122.48 147.528 123.154 151.22 124.02C156.367 125.11 158.65 127.124 159.139 130.841C159.611 134.521 157.42 138.005 152.775 139.458Z" fill="#F4F7FA"/>
<g opacity="0.63">
<path opacity="0.63" d="M188.009 199.404L124.703 201.321C123.603 201.355 122.529 200.984 121.684 200.28C120.838 199.575 120.281 198.586 120.116 197.498L117.549 180.621C117.453 179.988 117.493 179.342 117.666 178.727C117.839 178.111 118.141 177.539 118.552 177.049C118.964 176.559 119.475 176.162 120.051 175.886C120.628 175.609 121.257 175.458 121.896 175.443L185.27 173.975C186.366 173.949 187.433 174.323 188.272 175.027C189.111 175.731 189.665 176.717 189.829 177.8L192.327 194.227C192.423 194.857 192.383 195.5 192.212 196.114C192.041 196.728 191.741 197.298 191.333 197.787C190.925 198.277 190.417 198.674 189.844 198.952C189.271 199.231 188.646 199.385 188.009 199.404Z" fill="#F4F7FA"/>
<path opacity="0.63" d="M190.135 213.278L126.865 215.44C125.763 215.478 124.685 215.109 123.836 214.404C122.987 213.7 122.427 212.708 122.261 211.617L122.237 211.458C122.141 210.829 122.18 210.187 122.351 209.574C122.521 208.961 122.82 208.391 123.227 207.902C123.635 207.412 124.141 207.015 124.713 206.736C125.285 206.457 125.909 206.302 126.545 206.282L189.838 204.277C190.938 204.242 192.014 204.611 192.86 205.316C193.707 206.02 194.266 207.011 194.431 208.099C194.527 208.728 194.489 209.369 194.319 209.982C194.149 210.594 193.851 211.164 193.445 211.653C193.039 212.142 192.535 212.54 191.964 212.82C191.393 213.1 190.77 213.256 190.135 213.278Z" fill="#F4F7FA"/>
</g>
<defs>
<linearGradient id="paint0_linear_1525_19531" x1="268.965" y1="26.0734" x2="-59.0352" y2="59.3528" gradientUnits="userSpaceOnUse">
<stop stop-color="#7C4EAB"/>
<stop offset="1" stop-color="#DD51D4"/>
</linearGradient>
<linearGradient id="paint1_linear_1525_19531" x1="60970.5" y1="80159.1" x2="62425.6" y2="102222" gradientUnits="userSpaceOnUse">
<stop stop-color="#E38DDD"/>
<stop offset="1" stop-color="#9571F6"/>
</linearGradient>
<linearGradient id="paint2_linear_1525_19531" x1="-8.04567" y1="152.311" x2="24.3557" y2="206.647" gradientUnits="userSpaceOnUse">
<stop stop-color="#FF9085"/>
<stop offset="1" stop-color="#FB6FBB"/>
</linearGradient>
<linearGradient id="paint3_linear_1525_19531" x1="14305.7" y1="225067" x2="47427" y2="241022" gradientUnits="userSpaceOnUse">
<stop stop-color="#FF9085"/>
<stop offset="1" stop-color="#FB6FBB"/>
</linearGradient>
<linearGradient id="paint4_linear_1525_19531" x1="71208.2" y1="209681" x2="178805" y2="304216" gradientUnits="userSpaceOnUse">
<stop stop-color="#FF9085"/>
<stop offset="1" stop-color="#FB6FBB"/>
</linearGradient>
<linearGradient id="paint5_linear_1525_19531" x1="61423.6" y1="71789" x2="66005.2" y2="102561" gradientUnits="userSpaceOnUse">
<stop stop-color="#E38DDD"/>
<stop offset="1" stop-color="#9571F6"/>
</linearGradient>
<linearGradient id="paint6_linear_1525_19531" x1="110114" y1="250872" x2="214669" y2="331666" gradientUnits="userSpaceOnUse">
<stop stop-color="#FF9085"/>
<stop offset="1" stop-color="#FB6FBB"/>
</linearGradient>
<linearGradient id="paint7_linear_1525_19531" x1="7096.34" y1="14811" x2="7211.06" y2="14853.6" gradientUnits="userSpaceOnUse">
<stop stop-color="#E38DDD"/>
<stop offset="1" stop-color="#9571F6"/>
</linearGradient>
<linearGradient id="paint8_linear_1525_19531" x1="10897.4" y1="14818.1" x2="11012.5" y2="14860.7" gradientUnits="userSpaceOnUse">
<stop stop-color="#E38DDD"/>
<stop offset="1" stop-color="#9571F6"/>
</linearGradient>
<linearGradient id="paint9_linear_1525_19531" x1="92.5739" y1="137.253" x2="299.421" y2="104.523" gradientUnits="userSpaceOnUse">
<stop stop-color="#444B8C"/>
<stop offset="1" stop-color="#26264F"/>
</linearGradient>
<linearGradient id="paint10_linear_1525_19531" x1="185.561" y1="56.955" x2="-18.1419" y2="479.473" gradientUnits="userSpaceOnUse">
<stop stop-color="#FFC444"/>
<stop offset="1" stop-color="#F36F56"/>
</linearGradient>
<linearGradient id="paint11_linear_1525_19531" x1="212.747" y1="53.1743" x2="50.537" y2="62.9326" gradientUnits="userSpaceOnUse">
<stop stop-color="#7C4EAB"/>
<stop offset="1" stop-color="#DD51D4"/>
</linearGradient>
<linearGradient id="paint12_linear_1525_19531" x1="212.4" y1="51.677" x2="57.9456" y2="61.2452" gradientUnits="userSpaceOnUse">
<stop stop-color="#7C4EAB"/>
<stop offset="1" stop-color="#DD51D4"/>
</linearGradient>
<linearGradient id="paint13_linear_1525_19531" x1="146213" y1="36403" x2="432448" y2="36403" gradientUnits="userSpaceOnUse">
<stop stop-color="#FF9085"/>
<stop offset="1" stop-color="#FB6FBB"/>
</linearGradient>
</defs>
</svg>
